# Blender 4.3.2
# www.blender.org
mtllib QUA.mtl
o Plane.001
v -0.275352 -0.220198 -1.841806
v 0.524648 -0.220198 -1.841806
v -0.275352 -0.220198 -2.641806
v 0.524648 -0.220198 -2.641806
v -0.275352 -0.230198 -1.841806
v 0.524648 -0.230198 -1.841806
v -0.275352 -0.230198 -2.641806
v 0.524648 -0.230198 -2.641806
vn -0.0000 1.0000 -0.0000
vn -0.0000 -1.0000 -0.0000
vn -1.0000 -0.0000 -0.0000
vn -0.0000 -0.0000 1.0000
vn 1.0000 -0.0000 -0.0000
vn -0.0000 -0.0000 -1.0000
vt 0.000000 0.000000
vt 1.000000 0.000000
vt 1.000000 1.000000
vt 0.000000 1.000000
s 0
usemtl PTA
f 1/1/1 2/2/1 4/3/1 3/4/1
f 5/1/2 7/4/2 8/3/2 6/2/2
f 1/1/3 3/4/3 7/4/3 5/1/3
f 2/2/4 1/1/4 5/1/4 6/2/4
f 4/3/5 2/2/5 6/2/5 8/3/5
f 3/4/6 4/3/6 8/3/6 7/4/6
o Plane.004
v -0.174277 -0.216710 -1.941806
v 0.425723 -0.216710 -1.941806
v -0.174277 -0.216710 -2.541806
v 0.425723 -0.216710 -2.541806
v -0.174277 -0.224210 -1.941806
v 0.425723 -0.224210 -1.941806
v -0.174277 -0.224210 -2.541806
v 0.425723 -0.224210 -2.541806
vn -0.0000 1.0000 -0.0000
vn -0.0000 -1.0000 -0.0000
vn -1.0000 -0.0000 -0.0000
vn -0.0000 -0.0000 1.0000
vn 1.0000 -0.0000 -0.0000
vn -0.0000 -0.0000 -1.0000
vt 0.000000 0.000000
vt 1.000000 0.000000
vt 1.000000 1.000000
vt 0.000000 1.000000
s 0
usemtl Material.004
f 9/5/7 10/6/7 12/7/7 11/8/7
f 13/5/8 15/8/8 16/7/8 14/6/8
f 9/5/9 11/8/9 15/8/9 13/5/9
f 10/6/10 9/5/10 13/5/10 14/6/10
f 12/7/11 10/6/11 14/6/11 16/7/11
f 11/8/12 12/7/12 16/7/12 15/8/12
