# Blender 4.3.2
# www.blender.org
mtllib HEX.mtl
o Plane
v -0.400000 0.000000 0.400000
v 0.400000 0.000000 0.400000
v -0.400000 0.000000 -0.400000
v 0.400000 0.000000 -0.400000
v -0.400000 -0.010000 0.400000
v 0.400000 -0.010000 0.400000
v -0.400000 -0.010000 -0.400000
v 0.400000 -0.010000 -0.400000
vn -0.0000 1.0000 -0.0000
vn -0.0000 -1.0000 -0.0000
vn -0.0000 -0.0000 1.0000
vn -1.0000 -0.0000 -0.0000
vn 1.0000 -0.0000 -0.0000
vn -0.0000 -0.0000 -1.0000
vt 1.000000 0.000000
vt 0.000000 1.000000
vt 0.000000 0.000000
vt 1.000000 1.000000
s 0
f 2/1/1 3/2/1 1/3/1
f 2/1/1 4/4/1 3/2/1
f 6/1/2 5/3/2 7/2/2
f 6/1/2 7/2/2 8/4/2
f 2/1/3 1/3/3 5/3/3 6/1/3
f 1/3/4 3/2/4 7/2/4 5/3/4
f 4/4/5 2/1/5 6/1/5 8/4/5
f 3/2/6 4/4/6 8/4/6 7/2/6
o Hexagono
v 0.000000 0.001845 -0.400000
v -0.346410 0.001845 -0.200000
v -0.346410 0.001845 0.200000
v 0.000000 0.001845 0.400000
v 0.346410 0.001845 0.200000
v 0.346410 0.001845 -0.200000
v 0.000000 -0.008155 -0.400000
v -0.346410 -0.008155 -0.200000
v -0.346410 -0.008155 0.200000
v 0.000000 -0.008155 0.400000
v 0.346410 -0.008155 0.200000
v 0.346410 -0.008155 -0.200000
vn -0.0000 1.0000 -0.0000
vn -0.0000 -1.0000 -0.0000
vn -0.5000 -0.0000 -0.8660
vn -1.0000 -0.0000 -0.0000
vn -0.5000 -0.0000 0.8660
vn 0.5000 -0.0000 0.8660
vn 1.0000 -0.0000 -0.0000
vn 0.5000 -0.0000 -0.8660
vt 0.000000 0.000000
s 0
usemtl Material.001
f 11/5/7 13/5/7 9/5/7
f 9/5/7 10/5/7 11/5/7
f 11/5/7 12/5/7 13/5/7
f 13/5/7 14/5/7 9/5/7
f 17/5/8 15/5/8 19/5/8
f 15/5/8 17/5/8 16/5/8
f 17/5/8 19/5/8 18/5/8
f 19/5/8 15/5/8 20/5/8
f 10/5/9 9/5/9 15/5/9 16/5/9
f 11/5/10 10/5/10 16/5/10 17/5/10
f 12/5/11 11/5/11 17/5/11 18/5/11
f 13/5/12 12/5/12 18/5/12 19/5/12
f 14/5/13 13/5/13 19/5/13 20/5/13
f 9/5/14 14/5/14 20/5/14 15/5/14
