# Blender 4.3.2
# www.blender.org
mtllib PENT.mtl
o Pentagono
v 0.000000 0.004270 -0.373826
v -0.380423 0.004270 -0.097433
v -0.235114 0.004270 0.349781
v 0.235114 0.004270 0.349781
v 0.380423 0.004270 -0.097433
v 0.000000 -0.005730 -0.373826
v -0.380423 -0.005730 -0.097433
v -0.235114 -0.005730 0.349781
v 0.235114 -0.005730 0.349781
v 0.380423 -0.005730 -0.097433
vn -0.0000 1.0000 -0.0000
vn -0.0000 -1.0000 -0.0000
vn -0.5878 -0.0000 -0.8090
vn -0.9511 -0.0000 0.3090
vn -0.0000 -0.0000 1.0000
vn 0.9511 -0.0000 0.3090
vn 0.5878 -0.0000 -0.8090
vt 0.000000 0.000000
s 0
usemtl Material.001
f 5/1/1 1/1/1 4/1/1
f 2/1/1 3/1/1 4/1/1 1/1/1
f 10/1/2 9/1/2 6/1/2
f 7/1/2 6/1/2 9/1/2 8/1/2
f 2/1/3 1/1/3 6/1/3 7/1/3
f 3/1/4 2/1/4 7/1/4 8/1/4
f 4/1/5 3/1/5 8/1/5 9/1/5
f 5/1/6 4/1/6 9/1/6 10/1/6
f 1/1/7 5/1/7 10/1/7 6/1/7
o Plane
v -0.400000 0.000000 0.400000
v 0.400000 0.000000 0.400000
v -0.400000 0.000000 -0.400000
v 0.400000 0.000000 -0.400000
v -0.400000 -0.010000 0.400000
v 0.400000 -0.010000 0.400000
v -0.400000 -0.010000 -0.400000
v 0.400000 -0.010000 -0.400000
vn -0.0000 1.0000 -0.0000
vn -0.0000 -1.0000 -0.0000
vn -1.0000 -0.0000 -0.0000
vn -0.0000 -0.0000 1.0000
vn 1.0000 -0.0000 -0.0000
vn -0.0000 -0.0000 -1.0000
vt 0.000000 0.000000
vt 1.000000 0.000000
vt 1.000000 1.000000
vt 0.000000 1.000000
s 0
usemtl Material
f 11/2/8 12/3/8 14/4/8 13/5/8
f 15/2/9 17/5/9 18/4/9 16/3/9
f 11/2/10 13/5/10 17/5/10 15/2/10
f 12/3/11 11/2/11 15/2/11 16/3/11
f 14/4/12 12/3/12 16/3/12 18/4/12
f 13/5/13 14/4/13 18/4/13 17/5/13
